<?xml version="1.0" encoding="UTF-8" standalone="no"?><!DOCTYPE svg PUBLIC "-//W3C//DTD SVG 1.1//EN" "http://www.w3.org/Graphics/SVG/1.1/DTD/svg11.dtd"><svg width="100%" height="100%" viewBox="0 0 2134 2134" version="1.1" xmlns="http://www.w3.org/2000/svg" xmlns:xlink="http://www.w3.org/1999/xlink" xml:space="preserve" xmlns:serif="http://www.serif.com/" style="fill-rule:evenodd;clip-rule:evenodd;stroke-linejoin:round;stroke-miterlimit:2;"><g><g><g><path d="M1066.671,924.45c44.838,0 83.875,-16.854 106.667,-29.371c22.792,12.517 61.829,29.371 106.667,29.371c66.204,0 140.196,-37.617 171.804,-86.933c3.129,-4.729 77.083,-117.758 77.083,-304.179c0,-137.246 -111.646,-248.888 -248.888,-248.888c-40.213,0 -76.871,14.754 -106.667,30.438c-29.796,-15.679 -66.454,-30.438 -106.667,-30.438c-137.246,0 -248.888,111.646 -248.888,248.888c0,210.667 65.529,292.517 79.788,307.771c32.138,40.463 98.129,83.342 169.1,83.342Zm0,-568.888c31.717,0 64.142,16.425 88.854,30.754c11.021,6.4 24.604,6.4 35.625,0c24.712,-14.329 57.138,-30.754 88.854,-30.754c98.025,0 177.779,79.75 177.779,177.779c0,163.625 -64.533,263.821 -65.492,265.246c-16.604,25.883 -66.775,54.754 -112.283,54.754c-45.829,0 -85.192,-28.337 -85.442,-28.517c-6.292,-4.692 -13.758,-7.042 -21.225,-7.042c-7.467,0 -14.933,2.346 -21.225,7.042c-0.392,0.283 -39.608,28.517 -85.442,28.517c-45.296,0 -92.588,-29.546 -114.096,-57.317c-0.712,-0.925 -1.921,-2.275 -2.738,-3.129c-0.604,-0.642 -60.942,-66.775 -60.942,-259.554c-0.008,-98.029 79.742,-177.779 177.771,-177.779Z" style="fill:#00641b;fill-rule:nonzero;"/><path d="M1142.867,231.65c6.65,11.092 18.417,17.246 30.508,17.246c6.221,0 12.55,-1.637 18.275,-5.083c16.817,-10.096 22.292,-31.929 12.158,-48.783l-106.667,-177.779c-10.1,-16.817 -31.929,-22.292 -48.783,-12.158c-16.817,10.096 -22.292,31.929 -12.158,48.783l106.667,177.775Z" style="fill:#00641b;fill-rule:nonzero;"/><path d="M1253.871,226.529c2.487,0.817 25.175,8.108 55.183,8.108l0.038,0c42.525,0 79.504,-14.508 106.846,-41.883c65.067,-65.067 35.058,-158.15 33.742,-162.1c-3.554,-10.596 -11.875,-18.917 -22.471,-22.471c-2.525,-0.817 -25.208,-8.108 -55.254,-8.108c-42.525,-0 -79.467,14.471 -106.846,41.85c-65.067,65.104 -35.021,158.15 -33.742,162.1c3.55,10.629 11.871,18.95 22.504,22.504Zm61.508,-134.329c13.938,-13.938 32.958,-21.013 56.571,-21.013c5.012,0 9.742,0.321 13.938,0.817c2.171,19.163 1.175,49.067 -20.229,70.471c-13.938,13.938 -32.996,21.05 -56.571,21.05c-5.013,0 -9.742,-0.354 -13.938,-0.817c-2.171,-19.2 -1.175,-49.104 20.229,-70.508Z" style="fill:#00641b;fill-rule:nonzero;"/><path d="M2026.671,995.563l-1706.667,0c-58.808,0 -106.667,47.858 -106.667,106.667l0,142.221c0,19.625 15.929,35.554 35.554,35.554c19.625,0 35.554,-15.929 35.554,-35.554l0,-142.221c0,-19.592 15.963,-35.554 35.554,-35.554l106.667,0l0,177.779c0,19.625 15.929,35.554 35.554,35.554c19.625,0 35.554,-15.929 35.554,-35.554l0,-177.779l924.446,0l0,177.779c0,19.625 15.929,35.554 35.554,35.554c19.625,0 35.554,-15.929 35.554,-35.554l0,-177.779l355.554,0l0,177.779c0,19.625 15.929,35.554 35.554,35.554c19.625,0 35.554,-15.929 35.554,-35.554l0,-177.779l106.667,0c19.592,0 35.554,15.963 35.554,35.554l0,248.888l-106.667,0c-19.625,0 -35.554,15.929 -35.554,35.554l0,320l-35.554,0c-19.625,0 -35.554,15.929 -35.554,35.554c0,19.625 15.929,35.554 35.554,35.554l106.667,0l0,248.888c0,19.592 -15.962,35.554 -35.554,35.554l-1102.213,0l-0,-177.779c0,-19.625 -15.929,-35.554 -35.554,-35.554c-19.625,0 -35.554,15.929 -35.554,35.554l0,177.779l-71.112,0l0,-177.779c0,-19.625 -15.929,-35.554 -35.554,-35.554c-19.625,0 -35.554,15.929 -35.554,35.554l0,177.779l-71.113,0l0,-177.779c0,-19.625 -15.929,-35.554 -35.554,-35.554c-19.625,0 -35.554,15.929 -35.554,35.554l0,177.779l-320,0c-19.592,0 -35.554,-15.962 -35.554,-35.554l0,-142.221c0,-19.625 -15.929,-35.554 -35.554,-35.554c-19.625,0 -35.554,15.929 -35.554,35.554l0,142.221c0,58.808 47.858,106.667 106.667,106.667l1777.779,0c58.808,0 106.667,-47.858 106.667,-106.667l0,-248.888c0,-46.188 -36.621,-71.112 -71.112,-71.112l0,-284.446l71.112,0c34.488,0 71.113,-24.925 71.113,-71.112l0,-248.888c-0.013,-58.8 -47.871,-106.658 -106.679,-106.658Z" style="fill:#00641b;fill-rule:nonzero;"/><path d="M1386.671,1777.783c19.625,0 35.554,-15.929 35.554,-35.554c0,-19.625 -15.929,-35.554 -35.554,-35.554l-391.113,0l0,-284.446l497.779,0l0,533.333c0,13.121 7.217,25.175 18.775,31.358c11.521,6.15 25.6,5.475 36.517,-1.779l86.933,-57.954l86.933,57.954c5.975,3.983 12.838,5.975 19.733,5.975c5.758,0 11.521,-1.388 16.783,-4.196c11.554,-6.188 18.775,-18.242 18.775,-31.358l0,-533.333l35.554,0c19.625,0 35.554,-15.929 35.554,-35.554c0,-19.625 -15.929,-35.554 -35.554,-35.554l-1706.667,0c-59.804,0 -106.667,46.863 -106.667,106.667l-0,213.333c0,58.808 47.858,106.667 106.667,106.667l1279.996,0l0,-0.004Zm177.771,-355.554l142.225,0l0,466.879l-51.379,-34.242c-11.946,-7.963 -27.521,-7.963 -39.467,0l-51.379,34.242l0,-466.879Zm-1137.771,0l497.779,0l0,284.446l-497.779,0l0,-284.446Zm-355.558,248.888l0,-213.333c0,-20.267 15.287,-35.554 35.554,-35.554l248.887,0l0,284.446l-248.883,0c-19.946,0 -35.558,-15.612 -35.558,-35.558Z" style="fill:#00641b;fill-rule:nonzero;"/><path d="M746.671,1493.338c-19.625,0 -35.554,15.929 -35.554,35.554l0,71.112c0,19.625 15.929,35.554 35.554,35.554c19.625,0 35.554,-15.929 35.554,-35.554l0,-71.112c0,-19.625 -15.929,-35.554 -35.554,-35.554Z" style="fill:#00641b;fill-rule:nonzero;"/><path d="M604.446,1493.338c-19.625,0 -35.554,15.929 -35.554,35.554l0,71.112c0,19.625 15.929,35.554 35.554,35.554c19.625,0 35.554,-15.929 35.554,-35.554l0,-71.112c0.004,-19.625 -15.925,-35.554 -35.554,-35.554Z" style="fill:#00641b;fill-rule:nonzero;"/></g></g></g></svg>