<?xml version="1.0" encoding="UTF-8" standalone="no"?><!DOCTYPE svg PUBLIC "-//W3C//DTD SVG 1.1//EN" "http://www.w3.org/Graphics/SVG/1.1/DTD/svg11.dtd"><svg width="100%" height="100%" viewBox="0 0 3334 3334" version="1.1" xmlns="http://www.w3.org/2000/svg" xmlns:xlink="http://www.w3.org/1999/xlink" xml:space="preserve" xmlns:serif="http://www.serif.com/" style="fill-rule:evenodd;clip-rule:evenodd;stroke-linejoin:round;stroke-miterlimit:2;"><g id="SVGRepo_iconCarrier"><path d="M1495.069,809.364l-144.224,384.216l194.94,221.789l51.881,48.261c83.014,77.213 136.829,180.702 152.356,293.006c13.594,98.235 -2.806,198.293 -47.051,287.043l-24.863,49.889l93.639,166.705l76.614,319.145c12.923,53.847 -47.181,95.39 -92.988,64.27l-418.904,-284.601l-497.093,-59.863c-21.601,-2.604 14.753,-98.606 44.889,-176.06c22.487,-57.799 27.956,-120.781 15.794,-181.587l-42.623,-213.091c2.051,-14.505 9.277,-27.78 20.351,-37.37l309.568,-267.863l-111.301,-247.739c0,0 -206.08,-51.79 -237.629,-47.428c-16.269,2.253 -102.936,-45.006 -182.831,-91.158c-90.097,-52.057 -151.177,-142.714 -165.435,-245.793l-46.907,-110.11c242.316,-300.89 595.329,-513.506 1008.178,-570.615c10.202,-1.413 20.417,-2.728 30.566,-3.841l124.68,173.957c48.47,67.617 70.214,150.787 61.067,233.475l-19.59,176.965c-4.831,43.698 -132.011,79.824 -153.085,118.398Z" style="fill:#cff09e;fill-rule:nonzero;"/><path d="M3317.246,1438.318c-72.877,-526.8 -391.729,-984.805 -857.645,-1237.35c-3.307,-2.077 -6.693,-3.997 -10.189,-5.625c-15.195,-8.099 -30.547,-15.983 -46.048,-23.646c-299.386,-147.831 -633.108,-201.705 -965.105,-155.774c-12.168,1.686 -24.284,3.574 -36.373,5.521c-1.048,0.169 -2.109,0.306 -3.158,0.475c-10.95,1.771 -21.829,3.73 -32.715,5.71c-2.526,0.456 -5.072,0.885 -7.604,1.354c-11.4,2.129 -22.747,4.427 -34.069,6.784c-1.68,0.352 -3.359,0.677 -5.033,1.042c-12.207,2.585 -24.355,5.312 -36.471,8.158c-0.41,0.098 -0.82,0.189 -1.23,0.286c-113.971,26.849 -223.918,65.377 -329.093,115.318c-2.181,1.042 -4.368,2.077 -6.543,3.118c-8.991,4.323 -17.969,8.704 -26.894,13.19c-4.714,2.363 -9.381,4.779 -14.069,7.181c-6.784,3.49 -13.561,6.973 -20.293,10.56c-8.372,4.447 -16.68,9.01 -24.98,13.6c-3.288,1.823 -6.608,3.594 -9.889,5.443c-182.89,102.792 -346.183,240.311 -480.87,407.569c-22.09,27.428 -27.259,64.798 -13.457,97.193l42.22,99.121c21.595,127.434 97.617,236.965 210.155,301.99c167.955,97.024 198.684,104.023 229.302,104.023c2.324,0 4.642,-0.078 6.953,-0.228c21.973,1.719 94.16,17.09 163.983,33.769l63.125,140.5l-255.903,221.418c-28.515,24.674 -47.116,58.828 -52.376,96.165c-1.504,10.644 -1.191,21.471 0.918,32.018l42.623,213.091c8.613,43.053 4.753,87.421 -11.159,128.307c-56.041,144.049 -74.218,203.495 -42.383,256.62c16.289,27.181 43.613,44.941 74.974,48.717l474.079,57.09l399.744,271.574c26.159,17.767 56.412,27.161 87.486,27.161c47.441,0 93.417,-22.415 123.014,-59.941c29.557,-37.48 40.045,-85.826 28.815,-132.655l-76.614,-319.145c-2.051,-8.548 -5.286,-16.777 -9.583,-24.446l-68.899,-122.669l2.337,-4.694c53.027,-106.406 72.447,-224.901 56.159,-342.648c-18.483,-133.645 -83.079,-257.863 -181.874,-349.77l-48.372,-44.987l-154.016,-175.24l116.985,-311.639c9.473,-6.048 24.433,-14.219 35.26,-20.124c54.505,-29.765 122.343,-66.816 130.481,-140.312l19.59,-176.965c11.758,-106.262 -16.061,-212.635 -78.339,-299.529l-24.329,-33.945c205.494,-1.224 408.194,40.351 597.158,123.079c-10.137,12.962 -20.495,26.608 -30.631,40.612c-43.366,59.876 -144.901,200.09 -56.868,293.299c9.583,10.15 19.629,19.85 29.336,29.232c9.759,9.421 23.965,23.144 33.496,34.173c-76.718,67.851 -154.263,186.672 -126.848,305.376c15.137,65.501 67.617,152.551 231.711,195.246c94.57,24.609 195.598,38.626 256.066,-25.514c143.202,61.64 215.142,98.092 215.832,98.443c13.874,7.07 28.659,10.417 43.235,10.417c34.726,0 68.203,-19.03 85.045,-52.083c23.919,-46.92 5.267,-104.355 -41.66,-128.274c-3.236,-1.641 -80.924,-41.094 -237.811,-108.333c-45.052,-19.316 -93.274,-34.57 -140.767,-15.514c-30.319,12.161 -47.715,33.476 -57.767,50.592c-13.841,-1.172 -37.148,-4.7 -74.121,-14.323c-64.017,-16.66 -90.592,-39.277 -93.906,-53.587c-6.354,-27.506 26.341,-84.433 69.967,-121.822c55.761,-47.793 68.671,-98.177 69.681,-132.024c2.383,-80.253 -54.896,-136.757 -97.766,-178.183c15.768,-32.044 53.021,-85.332 96.373,-138.3c379.431,229.497 637.386,617.711 698.7,1060.912c15.443,111.633 18.157,222.876 8.477,332.902c-59.674,-56.836 -124.817,-119.29 -142.786,-137.193c-68.86,-68.6 -194.133,-80.904 -250.715,-77.871c-142.011,7.695 -393.149,42.5 -479.496,189.087c-106.36,180.272 -84.322,376.196 58.932,524.066c4.74,4.902 9.108,9.518 13.125,13.861c-57.259,12.93 -126.152,47.689 -158.808,147.72c-16.354,50.071 10.99,103.919 61.061,120.266c9.824,3.216 19.798,4.74 29.616,4.74c40.15,0 77.513,-25.56 90.644,-65.8c6.517,-19.922 7.194,-22.012 54.941,-24.694c96.041,-5.306 133.58,-50.787 148.144,-88.001c33.353,-85.156 -32.676,-169.485 -101.686,-240.786c-105.501,-108.906 -75.462,-220.233 -31.647,-294.49c23.548,-39.961 142.909,-85.598 325.499,-95.494c38.32,-2.109 93.072,11.256 105.781,22.526c17.519,17.461 174.608,168.293 239.289,228.56c-5.085,20.306 -10.482,40.553 -16.452,60.716c-164.244,554.821 -640.517,964.526 -1213.391,1043.783c-390.447,54.03 -778.518,-47.246 -1092.793,-285.135c-314.276,-237.889 -517.08,-583.929 -571.09,-974.356c-24.167,-174.654 -17.318,-349.692 20.345,-520.231c11.361,-51.432 -21.126,-102.337 -72.558,-113.697c-51.452,-11.367 -102.337,21.126 -113.697,72.558c-42.558,192.714 -50.312,390.369 -23.04,587.516c60.989,440.902 290.031,831.662 644.925,1100.3c292.531,221.424 641.63,338.032 1002.234,338.019c76.881,0 154.342,-5.312 231.815,-16.022c646.884,-89.492 1184.713,-552.113 1370.155,-1178.6c67.343,-227.759 84.882,-463.396 52.096,-700.406Zm-1744.3,-934.799l-16.693,150.813c-10.566,6.582 -25.169,14.551 -35.215,20.039c-44.642,24.375 -86.809,47.409 -109.68,89.238c-2.155,3.939 -4.017,8.021 -5.599,12.22l-144.224,384.216c-12.37,32.949 -5.579,70.039 17.656,96.477l194.934,221.789c2.109,2.402 4.342,4.7 6.686,6.875l51.875,48.248c66.731,62.076 110.364,145.976 122.851,236.236c11.009,79.531 -2.116,159.556 -37.929,231.431l-24.863,49.889c-14.095,28.281 -13.275,61.699 2.201,89.251l87.141,155.155l52.552,218.892l-344.594,-234.1c-12.598,-8.561 -27.064,-13.984 -42.194,-15.801l-397.068,-47.819c8.704,-23.802 17.663,-46.797 22.337,-58.828c29.127,-74.869 36.191,-156.086 20.436,-234.881l-35.097,-175.448l291.287,-252.03c31.862,-27.565 41.862,-72.767 24.596,-111.204l-111.301,-247.739c-11.96,-26.621 -35.443,-46.295 -63.75,-53.411c-72.089,-18.118 -197.642,-48.021 -249.992,-50.416c-13.763,-5.84 -52.129,-24.023 -146.008,-78.261c-65.13,-37.617 -108.385,-101.868 -118.671,-176.275c-1.165,-8.366 -3.424,-16.536 -6.732,-24.31l-24.004,-56.347c95.553,-109.85 205.663,-203.82 326.626,-279.985c8.496,-5.358 17.051,-10.612 25.638,-15.781c3.262,-1.966 6.53,-3.919 9.811,-5.853c6.66,-3.939 13.353,-7.793 20.058,-11.628c4.551,-2.591 9.088,-5.208 13.665,-7.754c4.284,-2.383 8.6,-4.681 12.904,-7.031c127.057,-68.925 264.399,-119.146 408.377,-148.476c1.335,-0.267 2.663,-0.553 3.984,-0.82c8.431,-1.686 16.901,-3.281 25.377,-4.837c3.737,-0.684 7.474,-1.354 11.224,-2.005c7.428,-1.296 14.87,-2.559 22.324,-3.75c1.354,-0.221 2.721,-0.41 4.075,-0.618l91.184,127.226c34.844,48.567 50.397,108.027 43.815,167.414Z" style="fill:#00641b;fill-rule:nonzero;"/></g></svg>