<?xml version="1.0" encoding="UTF-8" standalone="no"?><!DOCTYPE svg PUBLIC "-//W3C//DTD SVG 1.1//EN" "http://www.w3.org/Graphics/SVG/1.1/DTD/svg11.dtd"><svg width="100%" height="100%" viewBox="0 0 2134 2134" version="1.1" xmlns="http://www.w3.org/2000/svg" xmlns:xlink="http://www.w3.org/1999/xlink" xml:space="preserve" xmlns:serif="http://www.serif.com/" style="fill-rule:evenodd;clip-rule:evenodd;stroke-linejoin:round;stroke-miterlimit:2;"><g><g><g><path d="M212.158,1857.246c4.763,0 9.563,-0.958 14.188,-2.987c113.421,-49.388 304.958,-75.092 569.492,-76.446l25.671,51.412c8.817,17.567 30.188,24.746 47.717,15.892c17.562,-8.783 24.712,-30.117 15.892,-47.679l-35.521,-71.112c-6.046,-12.054 -18.346,-19.662 -31.821,-19.662c-289.742,0 -492.517,26.95 -619.842,82.383c-17.992,7.858 -26.204,28.8 -18.383,46.825c5.838,13.375 18.888,21.375 32.608,21.375Z" style="fill:#00641b;fill-rule:nonzero;"/><path d="M2062.221,1920l-71.112,0l0,-177.779c0,-9.421 -3.771,-18.487 -10.417,-25.138l-213.617,-213.583c6.683,-13.904 10.704,-29.296 10.704,-45.725c0,-58.808 -47.858,-106.667 -106.667,-106.667c-58.808,0 -106.667,47.858 -106.667,106.667c0,58.808 47.858,106.667 106.667,106.667c16.425,0 31.788,-4.017 45.687,-10.667l203.2,203.163l0,163.062l-1848.888,0c-39.221,0 -71.112,31.892 -71.112,71.112l0,106.667c0,19.625 15.929,35.554 35.554,35.554c19.625,0 35.554,-15.929 35.554,-35.554l0,-106.667l1991.112,0l0,106.667c0,19.625 15.892,35.554 35.554,35.554c19.662,0 35.554,-15.929 35.554,-35.554l0,-106.667c0.004,-39.221 -31.925,-71.112 -71.108,-71.112Zm-391.108,-426.667c-19.625,0 -35.554,-15.963 -35.554,-35.554c0,-19.592 15.929,-35.554 35.554,-35.554c19.625,0 35.554,15.963 35.554,35.554c0,19.592 -15.929,35.554 -35.554,35.554Z" style="fill:#00641b;fill-rule:nonzero;"/><path d="M507.625,1063.538c25.921,67.483 111.679,285.083 173.904,378.417l5.617,8.496c45.654,69.225 122.025,185.1 379.521,185.1c257.458,0 333.867,-115.875 379.521,-185.1l5.617,-8.496c62.221,-93.333 147.946,-310.933 173.904,-378.417c46.438,-11.554 80.958,-53.583 80.958,-103.537l0,-142.221c0,-46.363 -29.725,-85.904 -71.113,-100.587l0,-183.858c0,-140.375 -73.921,-399.679 -347.342,-424.713c-0.533,-16.783 -6.079,-30.292 -12.267,-40.283c-34.95,-56.496 -133.083,-68.338 -209.279,-68.338c-632.675,0 -640,598.4 -640,604.446c0,19.625 15.892,35.521 35.483,35.521l0.071,0c19.592,0 35.483,-15.858 35.554,-35.483c0.071,-21.758 8.071,-533.371 568.888,-533.371c100.55,-0 140.838,21.758 148.8,34.629c1.104,1.812 4.125,6.683 -2.846,20.588c-5.512,11.021 -4.908,24.108 1.562,34.596c6.508,10.454 17.921,16.854 30.258,16.854c315.237,0 319.962,341.083 320,355.554l0,213.333c0,19.625 15.892,35.554 35.554,35.554c19.625,0 35.554,15.962 35.554,35.554l0,142.225c0,19.592 -15.929,35.554 -35.554,35.554c-14.825,0 -28.088,9.208 -33.317,23.075c-1.029,2.808 -106.025,281.85 -174.046,383.858l-5.829,8.817c-42.596,64.642 -100.979,153.138 -320.142,153.138c-219.2,0 -277.546,-88.496 -320.142,-153.138l-5.829,-8.817c-68.017,-102.008 -173.013,-381.05 -174.079,-383.858c-5.192,-13.867 -18.454,-23.075 -33.279,-23.075c-19.592,0 -35.554,-15.962 -35.554,-35.554l0,-142.221c0,-9.637 3.842,-18.383 10.096,-24.783c12.908,28.979 39.254,55.042 83.521,59.45l121.671,91.237c9.496,69.258 68.412,122.983 140.271,122.983l71.112,0c78.433,0 142.221,-63.788 142.221,-142.221c0,78.433 63.788,142.221 142.221,142.221l71.112,0c71.821,0 130.808,-53.725 140.267,-123.021l129.954,-97.421c15.717,-11.771 18.917,-34.062 7.112,-49.779c-11.771,-15.717 -34.063,-18.95 -49.779,-7.112l-90.629,67.983c-13.546,-43.342 -53.583,-75.092 -101.371,-75.092l-142.221,0c-58.808,0 -106.667,47.858 -106.667,106.667c0,-58.808 -47.858,-106.667 -106.667,-106.667l-142.221,0c-47.75,0 -87.787,31.75 -101.367,75.092l-67.842,-50.879c27.983,-67.625 53.333,-167.646 60.517,-237.867c112.071,-1.992 436.304,-15.679 580.55,-105.708c32.712,126.292 137.708,232.571 143.004,237.833c13.9,13.9 36.375,13.9 50.275,0c13.9,-13.904 13.9,-36.375 0,-50.275c-1.317,-1.317 -131.804,-133.263 -131.804,-259.308c0,-15.962 -10.667,-30.008 -26.062,-34.275c-15.325,-4.267 -31.788,2.275 -39.963,15.963c-51.771,86.221 -387.592,124.979 -609.529,124.979c-19.625,0 -35.554,15.929 -35.554,35.554c0,57.708 -27.271,172.979 -56.283,243.913c-11.342,-6.825 -14.542,-19.554 -14.825,-30.579c0,-19.625 -15.929,-35.554 -35.554,-35.554c-58.808,0 -106.667,47.858 -106.667,106.667l0,142.221c-0.008,49.954 34.517,91.983 80.95,103.538Zm630.154,-174.65c0,-19.592 15.929,-35.554 35.554,-35.554l142.221,0c19.625,0 35.554,15.962 35.554,35.554l0,35.554c0,39.217 -31.892,71.112 -71.113,71.112l-71.112,0c-39.217,0 -71.112,-31.892 -71.112,-71.112l0,-35.554l0.008,0Zm-355.558,0c0,-19.592 15.962,-35.554 35.554,-35.554l142.225,0c19.592,0 35.554,15.962 35.554,35.554l0,35.554c0,39.217 -31.892,71.112 -71.112,71.112l-71.108,0c-39.217,0 -71.113,-31.892 -71.113,-71.112l0,-35.554Z" style="fill:#00641b;fill-rule:nonzero;"/><path d="M1244.408,1280.108c0.037,-19.592 -15.821,-35.554 -35.413,-35.663c-0.675,0 -64.25,-0.712 -126.438,-31.821c-9.992,-4.979 -21.796,-4.979 -31.787,0c-62.188,31.112 -125.796,31.821 -126.329,31.821c-19.625,0 -35.554,15.929 -35.554,35.554c0,19.625 15.929,35.554 35.554,35.554c3.021,0 70.188,-0.392 142.221,-31.892c72,31.5 139.2,31.892 142.221,31.892c19.596,0 35.454,-15.858 35.525,-35.446Z" style="fill:#00641b;fill-rule:nonzero;"/><path d="M1315.45,1708.125c-13.296,0.071 -25.492,7.538 -31.575,19.413l-35.554,69.617c-8.925,17.492 -1.954,38.933 15.504,47.858c5.154,2.629 10.704,3.875 16.142,3.875c12.942,0 25.421,-7.075 31.717,-19.379l25.638,-50.275c194.346,0.533 350.862,15.075 465.562,43.237c19.129,4.729 38.329,-6.967 42.988,-26.025c4.692,-19.092 -6.933,-38.329 -26.025,-43.021c-124.521,-30.617 -293.408,-46.546 -504.396,-45.3Z" style="fill:#00641b;fill-rule:nonzero;"/><path d="M1031.113,1742.221l0,71.113c0,19.625 15.929,35.554 35.554,35.554c19.625,0 35.554,-15.929 35.554,-35.554l0,-71.113c0,-19.625 -15.929,-35.554 -35.554,-35.554c-19.625,0 -35.554,15.929 -35.554,35.554Z" style="fill:#00641b;fill-rule:nonzero;"/><path d="M1031.113,1351.113c-19.625,0 -35.554,15.929 -35.554,35.554c0,19.625 15.929,35.554 35.554,35.554l71.112,0c19.662,0 35.554,-15.929 35.554,-35.554c0,-19.625 -15.892,-35.554 -35.554,-35.554l-71.112,0Z" style="fill:#00641b;fill-rule:nonzero;"/></g></g></g></svg>